<?xml version="1.0" encoding="UTF-8" standalone="no"?> 
<svg xmlns="http://www.w3.org/2000/svg" viewBox="0 0 64 64">
<g id="_07-banned" data-name="07-banned">
<path d="M32,0A32,32,0,1,0,64,32,32.036,32.036,0,0,0,32,0Zm0,62A30,30,0,1,1,62,32,30.034,30.034,0,0,1,32,62Z" fill="#B5EB4A"/>
<path d="M12.7,14.7a1,1,0,0,0-1.476.069A27,27,0,0,0,49.236,52.781a1,1,0,0,0,.069-1.476ZM34,53h.5a.5.5,0,0,1,0,1h-5a.5.5,0,0,1,0-1H30a1,1,0,0,0,1-1V45.841a1,1,0,0,0-.858-.99,12.959,12.959,0,0,1-6.171-2.66,1,1,0,0,0-1.326.079l-2.312,2.312a1,1,0,0,0,0,1.414l.353.353a.5.5,0,1,1-.707.708l-3.535-3.536a.5.5,0,1,1,.707-.708l.353.354a1,1,0,0,0,1.414,0l2.38-2.38a1,1,0,0,0,.109-1.286,12.984,12.984,0,0,1-2.258-5.643,1,1,0,0,0-.99-.858H12a1,1,0,0,0-1,1v.5a.5.5,0,0,1-1,0v-5a.5.5,0,0,1,1,0V30a1,1,0,0,0,1,1h6.159a1,1,0,0,0,.99-.858,12.927,12.927,0,0,1,1.595-4.57l17.7,17.7a12.957,12.957,0,0,1-4.582,1.583,1,1,0,0,0-.858.99V52A1,1,0,0,0,34,53Zm-2,4A25,25,0,0,1,12.074,16.9l7.215,7.215A14.991,14.991,0,0,0,17.319,29H12.95A2.5,2.5,0,0,0,8,29.5v5a2.5,2.5,0,0,0,4.95.5h4.368a15.042,15.042,0,0,0,1.987,4.953l-1.129,1.129a2.5,2.5,0,0,0-3.147,3.853l3.536,3.536a2.5,2.5,0,0,0,3.853-3.147l1.031-1.031A14.993,14.993,0,0,0,29,46.682V51.05A2.5,2.5,0,0,0,29.5,56h5a2.5,2.5,0,0,0,.5-4.95V46.682a15,15,0,0,0,4.888-1.966l7.21,7.21A25.045,25.045,0,0,1,32,57Z" fill="#B5EB4A"/>
<path d="M32,5a27.03,27.03,0,0,0-17.236,6.219A1,1,0,0,0,14.7,12.7l36.61,36.61a1,1,0,0,0,.707.293h.046a1,1,0,0,0,.723-.361A27,27,0,0,0,32,5Zm-2,6h-.5a.5.5,0,0,1,0-1h5a.5.5,0,0,1,0,1H34a1,1,0,0,0-1,1v6.159a1,1,0,0,0,.858.99A12.984,12.984,0,0,1,39.5,21.407a1,1,0,0,0,1.286-.109l2.88-2.88a1,1,0,0,0,0-1.414l-.353-.353a.5.5,0,1,1,.707-.708l3.535,3.536a.5.5,0,1,1-.707.708l-.353-.354a1,1,0,0,0-1.414,0L42.27,22.645a1,1,0,0,0-.079,1.326,12.959,12.959,0,0,1,2.66,6.171,1,1,0,0,0,.99.858H52a1,1,0,0,0,1-1v-.5a.5.5,0,0,1,1,0v5a.5.5,0,0,1-1,0V34a1,1,0,0,0-1-1H45.841a1,1,0,0,0-.99.858,12.927,12.927,0,0,1-1.584,4.581L32.581,27.752a3.975,3.975,0,0,0-5.333-5.333l-1.68-1.679a12.952,12.952,0,0,1,4.574-1.591,1,1,0,0,0,.858-.99V12A1,1,0,0,0,30,11Zm.987,15.159-2.146-2.146c.053,0,.105-.013.159-.013a2,2,0,0,1,2,2C31,26.054,30.991,26.106,30.987,26.159ZM51.926,47.1l-7.21-7.21A15,15,0,0,0,46.682,35H51.05A2.5,2.5,0,0,0,56,34.5v-5a2.5,2.5,0,0,0-4.95-.5H46.682a14.993,14.993,0,0,0-2.389-5.551l1.531-1.531a2.5,2.5,0,0,0,3.147-3.853l-3.536-3.536a2.5,2.5,0,0,0-3.853,3.147l-1.629,1.629A15.042,15.042,0,0,0,35,17.318V12.95A2.5,2.5,0,0,0,34.5,8h-5a2.5,2.5,0,0,0-.5,4.95v4.368a15.042,15.042,0,0,0-4.886,1.968L16.9,12.074A25,25,0,0,1,51.926,47.1Z" fill="#B5EB4A"/>
<path d="M39.354,30.924a2.608,2.608,0,0,0,1.058-.221,3.283,3.283,0,0,0,1.333-4.413A3.283,3.283,0,0,0,37.588,24.3a3.283,3.283,0,0,0-1.333,4.413A3.529,3.529,0,0,0,39.354,30.924Zm-.959-4.8a.651.651,0,0,1,.263-.053A1.583,1.583,0,0,1,39.915,27.1c.323.732.178,1.562-.31,1.777s-1.2-.238-1.52-.969S37.907,26.342,38.4,26.127Z" fill="#B5EB4A"/>
<path d="M25.621,32.217a3.285,3.285,0,0,0-4.368,1.475,3.284,3.284,0,0,0,2.126,4.091,3.993,3.993,0,0,0,1.482.292,3.013,3.013,0,0,0,2.885-1.766h0A3.284,3.284,0,0,0,25.621,32.217Zm.271,3.344c-.2.493-1.024.665-1.766.366s-1.216-.994-1.018-1.488a1.045,1.045,0,0,1,1.019-.514,2.023,2.023,0,0,1,.747.148C25.615,34.371,26.09,35.066,25.892,35.561Z" fill="#B5EB4A"/>
<path d="M33.732,39a2.334,2.334,0,0,0-1.976-.726,3.359,3.359,0,0,0-1.926.87A2.755,2.755,0,0,0,29.268,43,2.3,2.3,0,0,0,31,43.741c.08,0,.161,0,.242-.011a3.359,3.359,0,0,0,1.926-.87A2.755,2.755,0,0,0,33.732,39Zm-1.9,2.376a1.38,1.38,0,0,1-.766.366.4.4,0,0,1-.312-.07c-.118-.131-.051-.626.41-1.04a1.38,1.38,0,0,1,.766-.366l.068,0a.337.337,0,0,1,.244.073C32.362,40.463,32.3,40.958,31.834,41.372Z" fill="#B5EB4A"/>
</g></svg>